<?xml version="1.0" encoding="utf-8"?>
<!-- Generator: Adobe Illustrator 25.2.0, SVG Export Plug-In . SVG Version: 6.00 Build 0)  -->
<svg version="1.1" id="Layer_1" xmlns="http://www.w3.org/2000/svg" xmlns:xlink="http://www.w3.org/1999/xlink" x="0px" y="0px"
	 viewBox="0 0 72 72" style="enable-background:new 0 0 72 72;" xml:space="preserve">
<style type="text/css">
	.st0{fill:none;stroke:#AC1F24;stroke-width:0.5;stroke-linecap:round;stroke-linejoin:round;}
	.st1{fill:#AC1F25;stroke:#AC1F24;stroke-width:0.5;stroke-miterlimit:10;}
	.st2{fill:#AC1F25;stroke:#AC1F24;stroke-width:0.5;stroke-linecap:round;stroke-linejoin:round;}
	.st3{fill:none;stroke:#AC1F24;stroke-width:0.5;stroke-linecap:round;stroke-linejoin:bevel;}
</style>
<line class="st0" x1="9.3" y1="35.8" x2="62.4" y2="35.8"/>
<line class="st0" x1="9.4" y1="33.2" x2="62.3" y2="33.2"/>
<line class="st0" x1="9.7" y1="30.5" x2="61.9" y2="30.5"/>
<line class="st0" x1="10.4" y1="27.9" x2="61.3" y2="27.9"/>
<line class="st0" x1="11.3" y1="25.3" x2="60.4" y2="25.3"/>
<line class="st0" x1="12.5" y1="22.7" x2="59.1" y2="22.7"/>
<line class="st0" x1="16.9" y1="20.1" x2="57.5" y2="20.1"/>
<line class="st0" x1="16.9" y1="17.5" x2="55.3" y2="17.5"/>
<line class="st0" x1="19.1" y1="14.9" x2="52.5" y2="14.9"/>
<line class="st0" x1="23" y1="12.2" x2="48.7" y2="12.2"/>
<line class="st0" x1="58.8" y1="22.1" x2="58.8" y2="35.8"/>
<line class="st0" x1="56.2" y1="18.4" x2="56.2" y2="35.8"/>
<line class="st0" x1="53.5" y1="15.7" x2="53.5" y2="35.8"/>
<line class="st0" x1="50.9" y1="13.6" x2="50.9" y2="35.6"/>
<line class="st0" x1="48.3" y1="12" x2="48.3" y2="35.7"/>
<line class="st0" x1="45.7" y1="10.8" x2="45.7" y2="35.8"/>
<line class="st0" x1="43.1" y1="9.9" x2="43.1" y2="35.8"/>
<line class="st0" x1="40.5" y1="9.3" x2="40.5" y2="35.8"/>
<line class="st0" x1="37.8" y1="8.9" x2="37.8" y2="35.8"/>
<line class="st0" x1="35.2" y1="8.9" x2="35.2" y2="35.8"/>
<line class="st0" x1="32.6" y1="9.1" x2="32.6" y2="35.8"/>
<line class="st0" x1="30" y1="9.6" x2="30" y2="35.8"/>
<line class="st0" x1="27.3" y1="10.3" x2="27.3" y2="35.8"/>
<line class="st0" x1="24.7" y1="11.3" x2="24.7" y2="35.8"/>
<line class="st0" x1="16.9" y1="16.9" x2="16.9" y2="35.8"/>
<line class="st0" x1="14.2" y1="19.7" x2="14.2" y2="35.8"/>
<line class="st0" x1="11.6" y1="25.3" x2="11.6" y2="35.8"/>
<line class="st0" x1="22.1" y1="12.8" x2="22.1" y2="35.8"/>
<line class="st0" x1="19.5" y1="14.5" x2="19.5" y2="35.8"/>
<line class="st0" x1="35.8" y1="59.5" x2="47.2" y2="59.5"/>
<line class="st0" x1="35.8" y1="56.9" x2="51.6" y2="56.9"/>
<line class="st0" x1="35.8" y1="54.3" x2="54.6" y2="54.3"/>
<line class="st0" x1="35.8" y1="51.6" x2="56.9" y2="51.6"/>
<line class="st0" x1="17.5" y1="49" x2="58.7" y2="49"/>
<line class="st0" x1="11.7" y1="46.4" x2="60.1" y2="46.4"/>
<line class="st0" x1="56.8" y1="46.4" x2="56.8" y2="51.8"/>
<line class="st0" x1="54.2" y1="46.4" x2="54.2" y2="54.7"/>
<line class="st0" x1="51.6" y1="46.4" x2="51.6" y2="56.9"/>
<line class="st0" x1="49" y1="46.4" x2="49" y2="58.6"/>
<line class="st0" x1="46.3" y1="46.4" x2="46.3" y2="59.9"/>
<line class="st0" x1="43.7" y1="46.4" x2="43.7" y2="60.8"/>
<line class="st0" x1="41.1" y1="46.4" x2="41.1" y2="61.5"/>
<line class="st0" x1="38.5" y1="46.4" x2="38.5" y2="61.9"/>
<line class="st0" x1="11.6" y1="35.8" x2="16.9" y2="35.8"/>
<path class="st1" d="M37.1,70.6l0.9-3.5l2.1-0.2l1.5,3.2l1.1-0.2l1.1-0.2l0.2-3.6c0.7-0.2,1.3-0.4,2-0.6l2.2,2.9l1-0.4l1.1-0.4
	l-0.5-3.6c0.6-0.3,1.3-0.6,1.9-1l2.7,2.3l1-0.6l0.9-0.7l-1.2-3.4c0.6-0.4,1.1-0.9,1.6-1.3l3.1,1.8l0.8-0.8l0.8-0.8l-1.8-3.1
	c0.5-0.5,0.9-1.1,1.3-1.6l3.4,1.2L65,55c0.2-0.3,0.4-0.6,0.6-1l-2.3-2.7c0.4-0.6,0.7-1.2,1-1.9l3.6,0.5l0.4-1.1
	c0.2-0.3,0.3-0.7,0.4-1l-2.9-2.2c0.2-0.7,0.4-1.3,0.6-2l3.6-0.2c0-0.4,0.2-0.7,0.2-1.1c0.1-0.4,0-0.7,0.2-1.1l-3.2-1.5
	c0-0.7,0.2-1.4,0.2-2.1l3.5-0.9c0-0.4,0-0.7,0-1.1s0-0.8,0-1.2l-3.6-0.8c0-0.7-0.1-1.4-0.2-2.1l3.2-1.5c0-0.4-0.1-0.7-0.2-1.1
	c-0.1-0.4-0.2-0.7-0.2-1.1l-3.6-0.2c-0.2-0.7-0.4-1.4-0.6-2l2.9-2.1c-0.1-0.4-0.3-0.7-0.4-1.1l-0.4-1l-3.7,0.4
	c-0.3-0.6-0.7-1.3-1-1.9l2.3-2.7L65,16.3c-0.2-0.3-0.4-0.6-0.7-0.9L61,16.5c-0.4-0.6-0.9-1.1-1.3-1.6l1.8-3.1L60.7,11l-0.9-0.9
	l-3.1,1.8L55,10.6l1.2-3.4l-0.9-0.7c-0.3-0.2-0.6-0.4-1-0.6l-2.7,2.3c-0.6-0.3-1.2-0.7-1.9-1l0.5-3.6l-1.1-0.4l-1-0.3L46,5.9
	c-0.7-0.2-1.3-0.5-2-0.6l-0.2-3.6l-1.1-0.2l-1.1-0.2L40,4.5l-2.1-0.2l-0.8-3.5c-0.4,0-0.8,0-1.2,0h-1.2l-0.9,3.5
	c-0.7,0-1.4,0-2.1,0.2l-1.7-3.3L29,1.4l-1.2,0.2l0,0v3.6l-2,0.6l-2.2-2.9l-1.1,0.4c-0.3,0-0.7,0.3-1.1,0.4l0.5,3.6
	c-0.6,0.3-1.3,0.6-1.9,1l-2.7-2.3l-0.9,0.6c-0.3,0.2-0.6,0.4-0.9,0.7l1.2,3.4c-0.6,0.4-1.1,0.9-1.6,1.3l-3.1-2l-0.8,0.8l-0.8,0.8
	l1.9,3l-1.4,1.6l-3.4-1.1l-0.6,0.9c-0.2,0.3-0.4,0.6-0.6,1l2.3,2.7c-0.3,0.6-0.7,1.3-1,1.9l-3.5-0.5l-0.5,1c-0.1,0.4-0.4,1-0.4,1
	l2.9,2.1c-0.2,0.7-0.4,1.4-0.6,2l-3.6,0.2l-0.2,1.1c0,0.4-0.2,1.1-0.2,1.1l3.3,1.5c0,0.7-0.2,1.4-0.2,2.1L1,34.4c0,0.4,0,0.7,0,1.2
	v1.2l3.6,0.9c0,0.7,0.1,1.4,0.2,2.1l-3.2,1.5l0.2,1.1c0,0.4,0.2,0.7,0.2,1.1l3.6,0.2c0.2,0.7,0.4,1.3,0.6,2l-2.9,2.2L3.7,49l0.4,1
	l3.4-0.4c0.3,0.6,0.7,1.3,1,1.9l-2.3,2.7l0.6,1c0.2,0.3,0.7,0.9,0.7,0.9l3.4-1.2c0.4,0.6,0.9,1.1,1.4,1.6l-1.8,3.1l0.8,0.8l0.8,0.8
	l3.1-1.9l1.6,1.3L15.5,64c0.3,0.2,0.6,0.5,0.9,0.7l0.9,0.6l2.7-2.3c0.6,0.4,1.2,0.7,1.9,1l-0.5,3.6l1.1,0.4l1.1,0.4l2.1-2.9
	c0.7,0.2,1.4,0.4,2,0.6l0.1,3.5l1.1,0.2l1.1,0.2l1.5-3.2l2.1,0.2l1.1,3.5 M16.9,36V17.1C27.1,6.6,44,6.4,54.5,16.6
	s10.7,27.1,0.4,37.6c-5,5.1-11.9,8-19,8l0,0V46.6H28v5.2h-2.6v-5.3h-5.3v5.2h-2.6v-5.2h-5.9c-3.9-8.7-2.8-18.7,2.7-26.4v5.3h-2.7V36
	"/>
<polygon class="st2" points="24.7,30.5 22.1,30.5 22.1,27.9 19.5,27.9 19.5,35.8 24.7,35.8 "/>
<polygon class="st2" points="30,22.7 32.6,22.7 32.6,17.5 35.2,17.5 35.2,35.8 27.3,35.8 27.3,14.9 30,14.9 "/>
<rect x="11.7" y="37.7" class="st0" width="48.1" height="7.2"/>
<rect x="40.9" y="37.7" class="st3" width="8.1" height="7.2"/>
<line class="st3" x1="44.9" y1="37.7" x2="44.9" y2="44.9"/>
<polyline class="st0" points="59.8,40 58,40 57.6,40.8 57.2,40 56.7,39.2 56.3,40 55.8,40.8 55.4,40 55,39.2 54.5,40 54.1,40.8 
	53.7,40 53.2,39.2 52.8,40 52.3,40 51.5,40 48,40 33.5,40 33.1,40.8 32.6,40 32.2,39.2 31.8,40 31.3,40.8 30.8,40 30.4,39.2 30,40 
	29.5,40.8 29.1,40 28.7,39.2 28.2,40 19.9,40 19.5,40.8 19,40 18.6,39.2 18.1,40 17.7,40.8 17.3,40 16.8,39.2 16.4,40 16,40.8 
	15.5,40 15.1,39.2 14.6,40 11.6,40 "/>
<polyline class="st0" points="59.8,42.4 55.8,42.4 55.4,43.2 55,42.4 54.5,41.6 54.1,42.4 53.7,43.2 53.2,42.4 52.8,41.6 52.3,42.4 
	51.9,43.2 51.5,42.4 51,41.6 50.6,42.4 49.3,42.4 46.2,42.4 39.2,42.4 38.7,43.2 38.3,42.4 37.9,41.6 37.4,42.4 37,43.2 36.6,42.4 
	36.1,41.6 35.7,42.4 35.3,43.2 34.8,42.4 34.4,41.6 33.9,42.4 25.6,42.4 25.2,43.2 24.7,42.4 24.3,41.6 23.8,42.4 23.4,43.2 
	23,42.4 22.5,41.6 22.1,42.4 21.7,43.2 21.2,42.4 20.8,41.6 20.4,42.4 11.6,42.4 "/>
<rect x="40.8" y="44.9" class="st2" width="8.1" height="0.6"/>
<rect x="40.9" y="37.1" class="st2" width="8.1" height="0.6"/>
</svg>
